<?xml version="1.0" encoding="utf-8"?>
<!-- Generator: Adobe Illustrator 16.0.0, SVG Export Plug-In . SVG Version: 6.00 Build 0)  -->
<!DOCTYPE svg PUBLIC "-//W3C//DTD SVG 1.1//EN" "http://www.w3.org/Graphics/SVG/1.1/DTD/svg11.dtd">
<svg version="1.1" id="Layer_1" xmlns="http://www.w3.org/2000/svg" xmlns:xlink="http://www.w3.org/1999/xlink" x="0px" y="0px"
	 width="130px" height="130px" viewBox="0 0 130 130" enable-background="new 0 0 130 130" xml:space="preserve">
<g>
	<g>
		<path fill-rule="evenodd" clip-rule="evenodd" fill="#FDFDFD" d="M0.207,28.451c0-9.172,0.008-18.344-0.017-27.516
			C0.188,0.315,0.315,0.19,0.934,0.191c42.918,0.019,85.836,0.019,128.753,0c0.62,0,0.744,0.125,0.744,0.744
			c-0.018,42.849-0.018,85.698,0,128.547c0,0.618-0.124,0.744-0.744,0.742c-42.917-0.018-85.835-0.018-128.753,0
			c-0.619,0.002-0.746-0.123-0.744-0.742c0.025-9.242,0.017-18.483,0.017-27.724c0.339,0.806,0.71,1.6,1.007,2.42
			c0.229,0.632,0.49,0.679,1.014,0.283c2.313-1.745,4.651-3.457,6.972-5.19c5.86-4.382,11.71-8.776,17.575-13.151
			c6.641-4.951,13.287-9.899,19.955-14.813c0.723-0.533,0.599-0.851,0.052-1.358c-2.252-2.087-4.49-4.192-6.727-6.298
			c-7.192-6.769-14.383-13.539-21.57-20.312C13.056,38.22,7.632,33.099,2.211,27.976c-1.146-1.083-1.133-1.092-1.775,0.306
			C0.401,28.357,0.286,28.395,0.207,28.451z M6.443,21.642c2.815,2.632,5.522,5.146,8.209,7.683
			c4.12,3.888,8.218,7.798,12.34,11.684c6.308,5.946,12.614,11.895,18.948,17.812c3.684,3.44,7.195,7.075,11.099,10.273
			c5.165,4.23,12.294,3.901,17.323-0.748c6.896-6.378,13.697-12.859,20.534-19.3c7.492-7.058,14.98-14.121,22.469-21.185
			c2.174-2.051,4.341-4.111,6.597-6.249c-1.339-0.552-2.596-0.68-3.879-0.68c-4.43,0-8.859-0.001-13.289-0.001
			c-32.046,0-64.09,0-96.136-0.001C9.274,20.929,7.901,20.988,6.443,21.642z M124.362,108.676
			c-4.678-3.504-9.224-6.922-13.786-10.321c-4.789-3.568-9.595-7.113-14.388-10.678c-5.596-4.162-11.198-8.317-16.758-12.527
			c-0.665-0.504-0.998-0.381-1.555,0.058c-3.355,2.64-7.19,4.097-11.444,4.338c-5.249,0.298-9.959-1.221-14.086-4.485
			c-0.453-0.358-0.719-0.381-1.22-0.002c-4.126,3.129-8.286,6.21-12.439,9.304c-4.901,3.648-9.804,7.298-14.708,10.942
			c-4.433,3.297-8.872,6.584-13.303,9.883c-1.535,1.143-3.051,2.31-4.628,3.505c1.456,0.644,2.859,0.793,4.287,0.793
			c36.616,0,73.231,0,109.847-0.004C121.566,109.48,122.935,109.338,124.362,108.676z M130.206,65.261
			c0-11.453,0-22.904,0.002-34.356c0-1.112-0.079-2.208-0.449-3.272c-0.202-0.579-0.325-0.818-0.916-0.242
			c-2.348,2.288-4.748,4.523-7.139,6.767c-4.708,4.419-9.431,8.822-14.132,13.249c-5.481,5.161-10.941,10.345-16.418,15.511
			c-2.487,2.344-4.983,4.68-7.496,6.996c-0.614,0.565-0.717,0.92,0.089,1.428c1.075,0.68,2.072,1.489,3.093,2.254
			c5.859,4.382,11.711,8.773,17.574,13.151c4.923,3.675,9.857,7.334,14.785,11.002c2.987,2.226,5.979,4.445,8.951,6.69
			c0.573,0.435,0.802,0.311,1.078-0.313c0.642-1.442,0.993-2.917,0.99-4.51C130.197,88.164,130.206,76.713,130.206,65.261z"/>
		<path fill-rule="evenodd" clip-rule="evenodd" fill="#010101" d="M0.207,28.451c0.079-0.056,0.194-0.094,0.229-0.169
			c0.642-1.398,0.629-1.39,1.775-0.306c5.421,5.124,10.845,10.245,16.273,15.361c7.187,6.773,14.378,13.543,21.57,20.312
			c2.237,2.106,4.475,4.211,6.727,6.298c0.547,0.508,0.671,0.825-0.052,1.358c-6.668,4.914-13.314,9.862-19.955,14.813
			C20.91,90.494,15.06,94.889,9.2,99.271c-2.321,1.733-4.659,3.445-6.972,5.19c-0.524,0.396-0.786,0.349-1.014-0.283
			c-0.297-0.82-0.667-1.614-1.007-2.42C0.207,77.321,0.207,52.886,0.207,28.451z"/>
		<path fill-rule="evenodd" clip-rule="evenodd" fill="#010101" d="M6.443,21.642c1.458-0.654,2.831-0.713,4.215-0.713
			c32.045,0.001,64.09,0.001,96.136,0.001c4.43,0,8.859,0.002,13.289,0.001c1.283,0,2.54,0.128,3.879,0.68
			c-2.256,2.137-4.423,4.197-6.597,6.249c-7.488,7.063-14.977,14.126-22.469,21.185c-6.837,6.441-13.638,12.921-20.534,19.3
			c-5.028,4.649-12.158,4.979-17.323,0.748c-3.903-3.198-7.415-6.833-11.099-10.273c-6.334-5.917-12.64-11.865-18.948-17.812
			c-4.122-3.885-8.22-7.795-12.34-11.684C11.966,26.789,9.258,24.274,6.443,21.642z"/>
		<path fill-rule="evenodd" clip-rule="evenodd" fill="#010101" d="M124.362,108.676c-1.428,0.662-2.796,0.805-4.182,0.805
			c-36.615,0.004-73.23,0.004-109.847,0.004c-1.427,0-2.831-0.149-4.287-0.793c1.577-1.195,3.093-2.362,4.628-3.505
			c4.431-3.299,8.87-6.586,13.303-9.883c4.904-3.645,9.807-7.294,14.708-10.942c4.153-3.094,8.313-6.175,12.439-9.304
			c0.5-0.379,0.767-0.356,1.22,0.002c4.127,3.265,8.837,4.783,14.086,4.485c4.254-0.241,8.089-1.698,11.444-4.338
			c0.557-0.438,0.89-0.562,1.555-0.058c5.56,4.21,11.162,8.365,16.758,12.527c4.793,3.564,9.599,7.109,14.388,10.678
			C115.139,101.754,119.685,105.172,124.362,108.676z"/>
		<path fill-rule="evenodd" clip-rule="evenodd" fill="#010101" d="M130.206,65.261c0,11.452-0.009,22.903,0.013,34.355
			c0.003,1.593-0.349,3.067-0.99,4.51c-0.276,0.623-0.505,0.747-1.078,0.313c-2.972-2.245-5.964-4.465-8.951-6.69
			c-4.928-3.668-9.862-7.327-14.785-11.002c-5.863-4.378-11.715-8.77-17.574-13.151c-1.021-0.765-2.018-1.574-3.093-2.254
			c-0.806-0.508-0.703-0.862-0.089-1.428c2.513-2.315,5.009-4.651,7.496-6.996c5.477-5.166,10.937-10.35,16.418-15.511
			c4.701-4.427,9.424-8.83,14.132-13.249c2.391-2.244,4.791-4.479,7.139-6.767c0.591-0.576,0.714-0.336,0.916,0.242
			c0.37,1.064,0.449,2.16,0.449,3.272C130.206,42.356,130.206,53.808,130.206,65.261z"/>
	</g>
</g>
</svg>
