<?xml version="1.0" encoding="utf-8"?>
<!-- Generator: Adobe Illustrator 16.0.0, SVG Export Plug-In . SVG Version: 6.00 Build 0)  -->
<!DOCTYPE svg PUBLIC "-//W3C//DTD SVG 1.1//EN" "http://www.w3.org/Graphics/SVG/1.1/DTD/svg11.dtd">
<svg version="1.1" xmlns="http://www.w3.org/2000/svg" xmlns:xlink="http://www.w3.org/1999/xlink" x="0px" y="0px"
	 width="129.624px" height="88.625px" viewBox="0 0 129.624 88.625" enable-background="new 0 0 129.624 88.625"
	 xml:space="preserve">
<g id="Layer_1" display="none">
</g>
<g id="Layer_2">
	<g>
		<g>
			<path fill-rule="evenodd" clip-rule="evenodd" fill="#FAFAFA" d="M129.831,81.377c0,2.382-0.015,4.763,0.014,7.144
				c0.005,0.446-0.086,0.611-0.532,0.522c-0.133-0.026-0.275-0.004-0.413-0.004c-42.587,0-85.174-0.003-127.761,0.02
				c-0.776,0-0.973-0.172-0.953-0.952c0.06-2.311,0.021-4.624,0.021-6.937c0.5,0.703,0.625,1.562,0.956,2.336
				c0.306,0.716,0.564,0.747,1.155,0.289c2.039-1.578,4.11-3.115,6.177-4.658c6.038-4.507,12.077-9.014,18.122-13.513
				c6.625-4.931,13.249-9.864,19.896-14.765c0.693-0.511,0.798-0.808,0.132-1.417c-2.26-2.066-4.482-4.175-6.712-6.274
				c-7.17-6.749-14.339-13.498-21.505-20.251c-5.412-5.1-10.82-10.205-16.225-15.313C1.065,6.529,1.078,6.519,0.437,7.91
				C0.402,7.984,0.286,8.021,0.207,8.076c0-2.45,0.015-4.901-0.013-7.351C0.188,0.279,0.279,0.114,0.726,0.203
				c0.133,0.026,0.275,0.004,0.413,0.004c42.587,0,85.174,0.002,127.761-0.02c0.776,0,0.973,0.172,0.953,0.952
				c-0.059,2.379-0.021,4.762-0.021,7.143c-0.387-0.173-0.314-0.585-0.396-0.88c-0.223-0.804-0.45-0.899-1.087-0.274
				c-1.914,1.88-3.884,3.706-5.841,5.543c-5.069,4.761-10.152,9.509-15.216,14.277c-5.49,5.17-10.962,10.362-16.449,15.537
				c-2.454,2.314-4.913,4.624-7.398,6.905c-0.667,0.613-0.71,0.976,0.119,1.49c1.049,0.651,2.011,1.444,3.002,2.186
				c5.842,4.371,11.677,8.752,17.524,13.115c6.536,4.877,13.083,9.739,19.626,14.606c1.566,1.166,3.139,2.325,4.676,3.463
				C129.177,83.361,129.138,82.194,129.831,81.377z M6.443,1.285c0.483,0.457,0.897,0.853,1.315,1.244
				c2.289,2.143,4.586,4.276,6.866,6.429c4.106,3.878,8.193,7.776,12.304,11.649c6.265,5.903,12.532,11.803,18.819,17.682
				c3.671,3.433,7.183,7.042,11.058,10.25c5.251,4.348,12.416,3.878,17.352-0.695c6.844-6.342,13.61-12.769,20.4-19.169
				c7.97-7.511,15.931-15.033,23.895-22.55c1.69-1.595,3.379-3.19,5.151-4.864c-1.352-0.557-2.607-0.682-3.887-0.681
				c-5.59,0.001-11.179,0-16.769,0c-30.811,0-61.622,0-92.433,0C9.17,0.579,7.836,0.65,6.443,1.285z M6.055,88.063
				c1.331,0.652,2.612,0.751,3.921,0.75c31.462-0.004,62.924-0.003,94.386-0.002c5.348,0,10.694-0.002,16.042-0.001
				c1.2,0.001,2.366-0.147,3.491-0.713c-0.094-0.124-0.138-0.221-0.212-0.276c-3.415-2.56-6.826-5.124-10.25-7.671
				c-5.825-4.334-11.662-8.651-17.486-12.985c-5.605-4.17-11.215-8.336-16.788-12.55c-0.617-0.467-0.94-0.37-1.468,0.051
				c-3.244,2.583-6.97,4.038-11.085,4.34c-5.335,0.392-10.15-1.092-14.364-4.418c-0.474-0.374-0.759-0.425-1.3-0.015
				c-4.11,3.121-8.259,6.19-12.399,9.271c-4.833,3.596-9.669,7.185-14.502,10.778c-4.447,3.306-8.893,6.613-13.334,9.926
				C9.173,85.691,7.654,86.854,6.055,88.063z"/>
			<path fill-rule="evenodd" clip-rule="evenodd" fill="#010101" d="M0.207,8.076C0.286,8.021,0.402,7.984,0.437,7.91
				c0.642-1.391,0.628-1.38,1.766-0.305c5.405,5.108,10.813,10.212,16.225,15.313c7.166,6.753,14.335,13.502,21.505,20.251
				c2.23,2.099,4.452,4.208,6.712,6.274c0.667,0.609,0.562,0.906-0.132,1.417c-6.648,4.9-13.271,9.834-19.896,14.765
				c-6.044,4.499-12.083,9.006-18.122,13.513c-2.067,1.543-4.138,3.08-6.177,4.658c-0.591,0.458-0.85,0.427-1.155-0.289
				c-0.331-0.774-0.456-1.633-0.956-2.336C0.207,56.806,0.207,32.44,0.207,8.076z"/>
			<path fill-rule="evenodd" clip-rule="evenodd" fill="#010101" d="M129.831,81.377c-0.693,0.817-0.654,1.984-1.44,2.874
				c-1.537-1.138-3.109-2.297-4.676-3.463c-6.543-4.867-13.09-9.729-19.626-14.606c-5.848-4.363-11.683-8.744-17.524-13.115
				c-0.991-0.741-1.953-1.534-3.002-2.186c-0.829-0.515-0.786-0.877-0.119-1.49c2.485-2.281,4.944-4.591,7.398-6.905
				c5.487-5.175,10.959-10.366,16.449-15.537c5.063-4.768,10.146-9.516,15.216-14.277c1.957-1.837,3.927-3.663,5.841-5.543
				c0.637-0.625,0.864-0.53,1.087,0.274c0.082,0.295,0.01,0.707,0.396,0.88C129.831,32.647,129.831,57.013,129.831,81.377z"/>
			<path fill-rule="evenodd" clip-rule="evenodd" fill="#010101" d="M6.443,1.285C7.836,0.65,9.17,0.579,10.516,0.579
				c30.811,0,61.622,0,92.433,0c5.59,0,11.179,0.002,16.769,0c1.279,0,2.535,0.124,3.887,0.681
				c-1.772,1.673-3.461,3.269-5.151,4.864c-7.964,7.517-15.925,15.039-23.895,22.55c-6.79,6.4-13.557,12.827-20.4,19.169
				c-4.936,4.573-12.101,5.043-17.352,0.695c-3.875-3.208-7.386-6.817-11.058-10.25C39.461,32.41,33.194,26.51,26.929,20.607
				c-4.111-3.873-8.198-7.771-12.304-11.649c-2.28-2.153-4.577-4.286-6.866-6.429C7.341,2.137,6.926,1.742,6.443,1.285z"/>
			<path fill-rule="evenodd" clip-rule="evenodd" fill="#010101" d="M6.055,88.063c1.599-1.209,3.118-2.372,4.651-3.516
				c4.442-3.313,8.888-6.62,13.334-9.926c4.833-3.594,9.67-7.183,14.502-10.778c4.141-3.08,8.29-6.149,12.399-9.271
				c0.541-0.41,0.826-0.359,1.3,0.015c4.214,3.326,9.029,4.81,14.364,4.418c4.115-0.302,7.841-1.757,11.085-4.34
				c0.527-0.421,0.851-0.518,1.468-0.051c5.573,4.214,11.183,8.38,16.788,12.55c5.824,4.334,11.661,8.651,17.486,12.985
				c3.424,2.547,6.835,5.111,10.25,7.671c0.074,0.056,0.118,0.152,0.212,0.276c-1.125,0.565-2.291,0.714-3.491,0.713
				c-5.348-0.001-10.694,0.001-16.042,0.001C72.9,88.811,41.438,88.81,9.977,88.813C8.667,88.814,7.386,88.716,6.055,88.063z"/>
		</g>
	</g>
</g>
</svg>
