<?xml version="1.0" encoding="utf-8"?>
<!-- Generator: Adobe Illustrator 16.0.0, SVG Export Plug-In . SVG Version: 6.00 Build 0)  -->
<!DOCTYPE svg PUBLIC "-//W3C//DTD SVG 1.1//EN" "http://www.w3.org/Graphics/SVG/1.1/DTD/svg11.dtd">
<svg version="1.1" id="Layer_1" xmlns="http://www.w3.org/2000/svg" xmlns:xlink="http://www.w3.org/1999/xlink" x="0px" y="0px"
	 width="21.66px" height="14.848px" viewBox="54.189 37.199 21.66 14.848" enable-background="new 54.189 37.199 21.66 14.848"
	 xml:space="preserve">
<g id="Layer_1_1_" display="none">
</g>
<g id="Layer_2">
	<g>
		<g>
			<path fill="#FAFAFA" d="M75.846,50.763c0,0.398-0.003,0.796,0.002,1.193c0.001,0.074-0.015,0.102-0.089,0.087
				c-0.022-0.004-0.046,0-0.069,0c-7.113,0-14.228-0.001-21.341,0.003c-0.13,0-0.163-0.029-0.159-0.159
				c0.01-0.386,0.003-0.772,0.003-1.159c0.083,0.118,0.104,0.262,0.16,0.391c0.051,0.12,0.094,0.125,0.193,0.048
				c0.341-0.263,0.687-0.52,1.032-0.777c1.009-0.753,2.018-1.506,3.027-2.258c1.106-0.823,2.213-1.647,3.323-2.466
				c0.116-0.086,0.134-0.136,0.022-0.237c-0.377-0.345-0.749-0.697-1.121-1.048c-1.198-1.127-2.396-2.255-3.593-3.383
				c-0.904-0.852-1.807-1.705-2.71-2.558c-0.19-0.179-0.188-0.181-0.295,0.051c-0.006,0.012-0.025,0.019-0.039,0.028
				c0-0.409,0.002-0.819-0.002-1.228c0-0.074,0.014-0.102,0.089-0.087c0.022,0.004,0.046,0.001,0.069,0.001
				c7.114,0,14.228,0,21.341-0.003c0.13,0,0.163,0.029,0.159,0.159c-0.009,0.397-0.003,0.795-0.003,1.193
				c-0.064-0.029-0.053-0.098-0.066-0.147c-0.037-0.134-0.075-0.15-0.182-0.045c-0.319,0.314-0.648,0.619-0.976,0.926
				c-0.847,0.795-1.696,1.588-2.542,2.385c-0.917,0.864-1.831,1.731-2.747,2.596c-0.41,0.386-0.821,0.772-1.236,1.154
				c-0.111,0.102-0.119,0.162,0.021,0.248c0.175,0.108,0.336,0.241,0.501,0.365c0.976,0.73,1.95,1.462,2.927,2.191
				c1.093,0.814,2.187,1.626,3.279,2.439c0.262,0.194,0.524,0.388,0.781,0.578C75.737,51.094,75.73,50.899,75.846,50.763z
				 M55.234,37.384c0.081,0.076,0.15,0.142,0.22,0.208c0.382,0.358,0.766,0.714,1.147,1.074c0.686,0.647,1.369,1.299,2.056,1.946
				c1.046,0.986,2.093,1.972,3.144,2.954c0.613,0.573,1.2,1.176,1.847,1.712c0.877,0.726,2.074,0.647,2.899-0.116
				c1.143-1.06,2.272-2.133,3.407-3.202c1.331-1.255,2.661-2.511,3.991-3.767c0.283-0.266,0.564-0.533,0.86-0.813
				c-0.226-0.093-0.435-0.114-0.648-0.113c-0.935,0-1.868,0-2.802,0c-5.146,0-10.293,0-15.44,0
				C55.69,37.266,55.467,37.277,55.234,37.384z M55.17,51.88c0.222,0.108,0.436,0.125,0.655,0.125
				c5.256-0.001,10.511-0.001,15.767-0.001c0.894,0,1.787,0,2.68,0c0.2,0,0.396-0.024,0.584-0.119
				c-0.017-0.021-0.023-0.037-0.036-0.046c-0.57-0.428-1.14-0.856-1.712-1.281c-0.974-0.725-1.948-1.445-2.922-2.169
				c-0.936-0.696-1.873-1.393-2.804-2.097c-0.104-0.078-0.157-0.062-0.245,0.009c-0.542,0.432-1.164,0.675-1.852,0.725
				c-0.891,0.065-1.695-0.182-2.399-0.738c-0.08-0.063-0.127-0.07-0.217-0.002c-0.687,0.521-1.379,1.034-2.071,1.549
				c-0.807,0.601-1.615,1.2-2.422,1.801c-0.743,0.552-1.486,1.104-2.228,1.657C55.69,51.483,55.437,51.678,55.17,51.88z"/>
			<path fill="#010101" d="M54.193,38.518c0.013-0.009,0.033-0.016,0.039-0.028c0.107-0.232,0.105-0.23,0.295-0.051
				c0.903,0.853,1.806,1.706,2.71,2.558c1.197,1.128,2.395,2.256,3.593,3.383c0.373,0.351,0.744,0.703,1.121,1.049
				c0.111,0.101,0.094,0.15-0.022,0.236c-1.11,0.818-2.217,1.643-3.323,2.467c-1.009,0.751-2.019,1.504-3.027,2.257
				c-0.345,0.258-0.691,0.515-1.032,0.778c-0.099,0.076-0.142,0.071-0.193-0.049c-0.055-0.129-0.076-0.272-0.16-0.39
				C54.193,46.658,54.193,42.588,54.193,38.518z"/>
			<path fill="#010101" d="M75.846,50.763c-0.116,0.137-0.109,0.331-0.241,0.48c-0.257-0.19-0.519-0.384-0.78-0.579
				c-1.094-0.813-2.188-1.625-3.279-2.439c-0.977-0.729-1.951-1.461-2.927-2.191c-0.166-0.123-0.326-0.256-0.501-0.365
				c-0.14-0.086-0.132-0.146-0.021-0.248c0.415-0.382,0.826-0.767,1.236-1.154c0.916-0.865,1.83-1.731,2.747-2.595
				c0.846-0.797,1.695-1.59,2.542-2.385c0.327-0.307,0.656-0.612,0.976-0.926c0.106-0.104,0.145-0.088,0.182,0.045
				c0.014,0.05,0.002,0.118,0.066,0.147C75.846,42.623,75.846,46.693,75.846,50.763z"/>
			<path fill="#010101" d="M55.234,37.384c0.233-0.106,0.456-0.118,0.681-0.118c5.147,0,10.293,0,15.441,0c0.933,0,1.867,0,2.801,0
				c0.214,0,0.423,0.021,0.649,0.114c-0.296,0.279-0.578,0.546-0.86,0.813c-1.331,1.255-2.661,2.512-3.992,3.767
				c-1.134,1.069-2.265,2.143-3.407,3.202c-0.824,0.764-2.021,0.842-2.899,0.115C63,44.741,62.414,44.138,61.8,43.565
				c-1.05-0.982-2.097-1.968-3.144-2.954c-0.687-0.647-1.37-1.298-2.055-1.946c-0.381-0.36-0.765-0.716-1.147-1.074
				C55.385,37.526,55.315,37.46,55.234,37.384z"/>
			<path fill="#010101" d="M55.17,51.88c0.267-0.202,0.521-0.396,0.777-0.588c0.742-0.553,1.485-1.105,2.228-1.658
				c0.807-0.601,1.615-1.199,2.422-1.801c0.692-0.514,1.385-1.026,2.071-1.548c0.09-0.068,0.138-0.061,0.217,0.002
				c0.704,0.556,1.508,0.804,2.399,0.738c0.688-0.051,1.31-0.293,1.852-0.725c0.088-0.071,0.142-0.087,0.245-0.009
				c0.931,0.704,1.868,1.4,2.804,2.097c0.974,0.724,1.948,1.444,2.922,2.169c0.571,0.425,1.142,0.854,1.712,1.281
				c0.013,0.009,0.02,0.025,0.035,0.046c-0.188,0.095-0.383,0.119-0.583,0.119c-0.894,0-1.786,0-2.68,0
				c-5.256,0-10.511,0-15.767,0.001C55.606,52.005,55.392,51.988,55.17,51.88z"/>
		</g>
	</g>
</g>
</svg>
