<?xml version="1.0" encoding="utf-8"?>
<!-- Generator: Adobe Illustrator 16.0.0, SVG Export Plug-In . SVG Version: 6.00 Build 0)  -->
<!DOCTYPE svg PUBLIC "-//W3C//DTD SVG 1.1//EN" "http://www.w3.org/Graphics/SVG/1.1/DTD/svg11.dtd">
<svg version="1.1" id="Layer_1" xmlns="http://www.w3.org/2000/svg" xmlns:xlink="http://www.w3.org/1999/xlink" x="0px" y="0px"
	 width="130px" height="130px" viewBox="0 0 130 130" enable-background="new 0 0 130 130" xml:space="preserve">
<g>
	<g>
		<path fill-rule="evenodd" clip-rule="evenodd" d="M67.275,130.162c-1.409,0-2.817,0-4.226,0c-0.253-0.073-0.502-0.192-0.76-0.214
			c-1.479-0.126-2.964-0.197-4.441-0.347c-4.1-0.414-8.111-1.275-12.032-2.536c-13.639-4.386-24.696-12.365-33.055-23.998
			C5.199,92.542,1.288,80.721,0.764,67.798c-0.121-2.99,0.101-6,0.286-8.994c0.264-4.278,1.12-8.465,2.396-12.549
			C8.947,28.653,19.876,15.563,36.285,7.137c8.067-4.142,16.683-6.377,25.762-6.758c0.283-0.012,0.561-0.142,0.841-0.217
			c1.517,0,3.033,0,4.55,0c0.307,0.076,0.612,0.21,0.922,0.219c3.851,0.109,7.646,0.665,11.379,1.567
			c15.553,3.759,28.145,12.043,37.583,24.972c7.745,10.61,11.722,22.579,12.254,35.68c0.203,5.007-0.158,9.993-1.099,14.93
			c-1.641,8.618-4.871,16.589-9.749,23.875c-5.908,8.826-13.539,15.797-22.881,20.853c-8.598,4.652-17.782,7.26-27.568,7.684
			C67.941,129.956,67.609,130.086,67.275,130.162z M74.913,85.618c-0.174,0.527-0.308,0.869-0.398,1.223
			c-0.241,0.94-0.4,1.908-0.712,2.825c-0.32,0.942-1.177,1.34-2.088,0.935c-0.562-0.249-1.129-0.68-1.479-1.179
			c-1.245-1.77-2.442-3.576-3.578-5.418c-3.136-5.091-6.231-10.207-9.344-15.313c-2.803-4.596-5.644-9.17-8.396-13.796
			c-1.035-1.738-1.949-3.56-2.768-5.411c-0.535-1.208,0.687-2.469,1.98-2.167c0.841,0.197,1.667,0.461,2.506,0.67
			c0.397,0.099,0.808,0.141,1.45,0.249c-2.04-8.34-4.089-16.432-6.337-24.493c-0.286,0.076-0.401,0.083-0.49,0.134
			c-0.163,0.094-0.317,0.207-0.466,0.323c-3.003,2.357-5.844,4.871-8.445,7.693c-2.422,2.628-3.526,5.607-3.601,9.104
			c-0.074,3.499,0.15,6.973,0.695,10.424c1.141,7.24,3.347,14.154,6.651,20.689c1.315,2.601,2.97,5.027,4.389,7.578
			c3.489,6.278,8.18,11.568,13.469,16.344c3.609,3.259,7.792,5.741,11.872,8.354c2.259,1.447,4.694,2.476,7.324,2.963
			c0.991,0.185,2.091,0.257,3.054,0.022c2.385-0.58,4.748-1.287,7.066-2.096c1.858-0.647,3.667-1.459,5.443-2.312
			c1.068-0.513,1.055-0.849,0.156-1.645c-5.09-4.502-10.185-8.999-15.285-13.488C76.755,87.107,75.891,86.428,74.913,85.618z
			 M47.407,22.795c0.097,0.539,0.14,0.909,0.231,1.267c0.775,3.037,1.552,6.073,2.342,9.105c1.198,4.602,2.404,9.201,3.613,13.799
			c0.308,1.169,0.548,1.292,1.446,0.64c1.292-0.936,2.535-1.941,3.816-2.891c0.438-0.324,0.413-0.702,0.299-1.147
			c-1.617-6.334-3.241-12.667-4.831-19.007c-0.175-0.696-0.543-0.983-1.208-1.069c-1.017-0.131-2.025-0.326-3.042-0.454
			C49.231,22.932,48.381,22.882,47.407,22.795z M95.354,100.771c0.747-1.885,1.403-3.565,2.079-5.238
			c0.263-0.65,0.091-1.116-0.436-1.565c-1.853-1.581-3.678-3.193-5.514-4.793c-2.999-2.613-5.988-5.236-9.013-7.82
			c-0.3-0.255-0.906-0.481-1.207-0.35c-1.654,0.727-3.267,1.552-4.874,2.38c-0.549,0.283-0.528,0.698-0.061,1.092
			c0.165,0.14,0.32,0.291,0.484,0.432c4.959,4.275,9.916,8.554,14.882,12.821C92.838,98.71,94.011,99.655,95.354,100.771z"/>
		<path fill-rule="evenodd" clip-rule="evenodd" fill="#FFFFFF" d="M67.275,130.162c0.334-0.076,0.666-0.206,1.003-0.221
			c9.786-0.424,18.971-3.031,27.568-7.684c9.342-5.056,16.973-12.026,22.881-20.853c4.878-7.286,8.108-15.257,9.749-23.875
			c0.94-4.938,1.302-9.923,1.099-14.93c-0.532-13.101-4.509-25.07-12.254-35.68c-9.438-12.929-22.03-21.213-37.583-24.972
			c-3.732-0.902-7.528-1.458-11.379-1.567c-0.31-0.009-0.615-0.143-0.922-0.219c20.908,0,41.816,0,62.725,0c0,43.333,0,86.667,0,130
			C109.2,130.162,88.237,130.162,67.275,130.162z"/>
		<path fill-rule="evenodd" clip-rule="evenodd" fill="#FFFFFF" d="M62.888,0.163c-0.28,0.075-0.558,0.205-0.841,0.217
			c-9.08,0.381-17.695,2.616-25.762,6.758C19.876,15.563,8.947,28.653,3.445,46.254c-1.276,4.084-2.132,8.271-2.396,12.549
			c-0.185,2.994-0.407,6.004-0.286,8.994c0.524,12.923,4.436,24.744,11.999,35.27c8.358,11.633,19.416,19.612,33.055,23.998
			c3.92,1.261,7.932,2.122,12.032,2.536c1.477,0.149,2.961,0.221,4.441,0.347c0.258,0.021,0.507,0.141,0.76,0.214
			c-20.956,0-41.912,0-62.877,0c0-43.333,0-86.666,0-130C21.084,0.163,41.986,0.163,62.888,0.163z"/>
		<path fill-rule="evenodd" clip-rule="evenodd" fill="#FFFFFF" d="M74.913,85.618c0.978,0.81,1.842,1.489,2.667,2.215
			c5.101,4.489,10.195,8.986,15.285,13.488c0.898,0.796,0.912,1.132-0.156,1.645c-1.776,0.853-3.585,1.664-5.443,2.312
			c-2.318,0.809-4.682,1.516-7.066,2.096c-0.963,0.234-2.063,0.162-3.054-0.022c-2.63-0.487-5.065-1.516-7.324-2.963
			c-4.079-2.613-8.262-5.096-11.872-8.354c-5.29-4.775-9.98-10.065-13.469-16.344c-1.418-2.551-3.074-4.978-4.389-7.578
			c-3.304-6.536-5.51-13.45-6.651-20.689c-0.544-3.451-0.769-6.925-0.695-10.424c0.075-3.496,1.179-6.476,3.601-9.104
			c2.601-2.822,5.441-5.336,8.445-7.693c0.148-0.116,0.303-0.229,0.466-0.323c0.089-0.051,0.204-0.059,0.49-0.134
			c2.248,8.061,4.297,16.153,6.337,24.493c-0.643-0.107-1.053-0.15-1.45-0.249c-0.839-0.209-1.665-0.473-2.506-0.67
			c-1.293-0.303-2.515,0.958-1.98,2.167c0.819,1.851,1.733,3.672,2.768,5.411c2.753,4.626,5.593,9.2,8.396,13.796
			c3.113,5.105,6.208,10.222,9.344,15.313c1.136,1.842,2.333,3.648,3.578,5.418c0.351,0.499,0.918,0.93,1.479,1.179
			c0.911,0.405,1.768,0.008,2.088-0.935c0.312-0.917,0.471-1.885,0.712-2.825C74.605,86.487,74.739,86.146,74.913,85.618z"/>
		<path fill-rule="evenodd" clip-rule="evenodd" fill="#FFFFFF" d="M47.407,22.795c0.974,0.086,1.824,0.137,2.667,0.244
			c1.017,0.128,2.025,0.323,3.042,0.454c0.665,0.086,1.033,0.373,1.208,1.069c1.59,6.341,3.214,12.673,4.831,19.007
			c0.113,0.445,0.138,0.823-0.299,1.147c-1.282,0.95-2.524,1.955-3.816,2.891c-0.898,0.651-1.139,0.529-1.446-0.64
			c-1.209-4.599-2.416-9.198-3.613-13.799c-0.79-3.033-1.567-6.069-2.342-9.105C47.547,23.705,47.503,23.334,47.407,22.795z"/>
		<path fill-rule="evenodd" clip-rule="evenodd" fill="#FFFFFF" d="M95.354,100.771c-1.344-1.115-2.517-2.061-3.658-3.042
			c-4.966-4.268-9.923-8.546-14.882-12.821c-0.164-0.141-0.319-0.292-0.484-0.432c-0.468-0.394-0.488-0.809,0.061-1.092
			c1.607-0.828,3.22-1.653,4.874-2.38c0.301-0.132,0.907,0.095,1.207,0.35c3.024,2.584,6.014,5.207,9.013,7.82
			c1.836,1.6,3.661,3.212,5.514,4.793c0.526,0.449,0.698,0.915,0.436,1.565C96.758,97.205,96.102,98.886,95.354,100.771z"/>
	</g>
</g>
</svg>
