<?xml version="1.0" encoding="utf-8"?>
<!-- Generator: Adobe Illustrator 16.0.0, SVG Export Plug-In . SVG Version: 6.00 Build 0)  -->
<!DOCTYPE svg PUBLIC "-//W3C//DTD SVG 1.1//EN" "http://www.w3.org/Graphics/SVG/1.1/DTD/svg11.dtd">
<svg version="1.1" xmlns="http://www.w3.org/2000/svg" xmlns:xlink="http://www.w3.org/1999/xlink" x="0px" y="0px"
	 width="21.845px" height="21.789px" viewBox="54.004 33.512 21.845 21.789" enable-background="new 54.004 33.512 21.845 21.789"
	 xml:space="preserve">
<g id="Layer_1" display="none">
	<g id="Layer_1_1_">
	</g>
	<g id="Layer_2" display="inline">
		<g>
			<g>
				<path fill="#FAFAFA" d="M75.846,50.763c0,0.398-0.003,0.796,0.002,1.193c0.001,0.074-0.015,0.102-0.089,0.087
					c-0.022-0.004-0.046,0-0.069,0c-7.113,0-14.228-0.001-21.341,0.003c-0.13,0-0.163-0.029-0.159-0.159
					c0.01-0.386,0.003-0.772,0.003-1.159c0.083,0.118,0.104,0.262,0.16,0.391c0.051,0.12,0.094,0.125,0.193,0.048
					c0.341-0.263,0.687-0.52,1.032-0.777c1.009-0.753,2.018-1.506,3.027-2.258c1.106-0.823,2.213-1.647,3.323-2.466
					c0.116-0.086,0.134-0.136,0.022-0.237c-0.377-0.345-0.749-0.697-1.121-1.048c-1.198-1.127-2.396-2.255-3.593-3.383
					c-0.904-0.852-1.807-1.705-2.71-2.558c-0.19-0.179-0.188-0.181-0.295,0.051c-0.006,0.012-0.025,0.019-0.039,0.028
					c0-0.409,0.002-0.819-0.002-1.228c0-0.074,0.014-0.102,0.089-0.087c0.022,0.004,0.046,0.001,0.069,0.001
					c7.114,0,14.228,0,21.341-0.003c0.13,0,0.163,0.029,0.159,0.159c-0.009,0.397-0.003,0.795-0.003,1.193
					c-0.064-0.029-0.053-0.098-0.066-0.147c-0.037-0.134-0.075-0.15-0.182-0.045c-0.319,0.314-0.648,0.619-0.976,0.926
					c-0.847,0.795-1.696,1.588-2.542,2.385c-0.917,0.864-1.831,1.731-2.747,2.596c-0.41,0.386-0.821,0.772-1.236,1.154
					c-0.111,0.102-0.119,0.162,0.021,0.248c0.175,0.108,0.336,0.241,0.501,0.365c0.976,0.73,1.95,1.462,2.927,2.191
					c1.093,0.814,2.187,1.626,3.279,2.439c0.262,0.194,0.524,0.388,0.781,0.578C75.737,51.094,75.73,50.899,75.846,50.763z
					 M55.234,37.384c0.081,0.076,0.15,0.142,0.22,0.208c0.382,0.358,0.766,0.714,1.147,1.074c0.686,0.647,1.369,1.299,2.056,1.946
					c1.046,0.986,2.093,1.972,3.144,2.954c0.613,0.573,1.2,1.176,1.847,1.712c0.877,0.726,2.074,0.647,2.899-0.116
					c1.143-1.06,2.272-2.133,3.407-3.202c1.331-1.255,2.661-2.511,3.991-3.767c0.283-0.266,0.564-0.533,0.86-0.813
					c-0.226-0.093-0.435-0.114-0.648-0.113c-0.935,0-1.868,0-2.802,0c-5.146,0-10.293,0-15.44,0
					C55.69,37.266,55.467,37.277,55.234,37.384z M55.17,51.88c0.222,0.108,0.436,0.125,0.655,0.125
					c5.256-0.001,10.511-0.001,15.767-0.001c0.894,0,1.787,0,2.68,0c0.2,0,0.396-0.024,0.584-0.119
					c-0.017-0.021-0.023-0.037-0.036-0.046c-0.57-0.428-1.14-0.856-1.712-1.281c-0.974-0.725-1.948-1.445-2.922-2.169
					c-0.936-0.696-1.873-1.393-2.804-2.097c-0.104-0.078-0.157-0.062-0.245,0.009c-0.542,0.432-1.164,0.675-1.852,0.725
					c-0.891,0.065-1.695-0.182-2.399-0.738c-0.08-0.063-0.127-0.07-0.217-0.002c-0.687,0.521-1.379,1.034-2.071,1.549
					c-0.807,0.601-1.615,1.2-2.422,1.801c-0.743,0.552-1.486,1.104-2.228,1.657C55.69,51.483,55.437,51.678,55.17,51.88z"/>
				<path fill="#010101" d="M54.193,38.518c0.013-0.009,0.033-0.016,0.039-0.028c0.107-0.232,0.105-0.23,0.295-0.051
					c0.903,0.853,1.806,1.706,2.71,2.558c1.197,1.128,2.395,2.256,3.593,3.383c0.373,0.351,0.744,0.703,1.121,1.049
					c0.111,0.101,0.094,0.15-0.022,0.236c-1.11,0.818-2.217,1.643-3.323,2.467c-1.009,0.751-2.019,1.504-3.027,2.257
					c-0.345,0.258-0.691,0.515-1.032,0.778c-0.099,0.076-0.142,0.071-0.193-0.049c-0.055-0.129-0.076-0.272-0.16-0.39
					C54.193,46.658,54.193,42.588,54.193,38.518z"/>
				<path fill="#010101" d="M75.846,50.763c-0.116,0.137-0.109,0.331-0.241,0.48c-0.257-0.19-0.519-0.384-0.78-0.579
					c-1.094-0.813-2.188-1.625-3.279-2.439c-0.977-0.729-1.951-1.461-2.927-2.191c-0.166-0.123-0.326-0.256-0.501-0.365
					c-0.14-0.086-0.132-0.146-0.021-0.248c0.415-0.382,0.826-0.767,1.236-1.154c0.916-0.865,1.83-1.731,2.747-2.595
					c0.846-0.797,1.695-1.59,2.542-2.385c0.327-0.307,0.656-0.612,0.976-0.926c0.106-0.104,0.145-0.088,0.182,0.045
					c0.014,0.05,0.002,0.118,0.066,0.147C75.846,42.623,75.846,46.693,75.846,50.763z"/>
				<path fill="#010101" d="M55.234,37.384c0.233-0.106,0.456-0.118,0.681-0.118c5.147,0,10.293,0,15.441,0c0.933,0,1.867,0,2.801,0
					c0.214,0,0.423,0.021,0.649,0.114c-0.296,0.279-0.578,0.546-0.86,0.813c-1.331,1.255-2.661,2.512-3.992,3.767
					c-1.134,1.069-2.265,2.143-3.407,3.202c-0.824,0.764-2.021,0.842-2.899,0.115C63,44.741,62.414,44.138,61.8,43.565
					c-1.05-0.982-2.097-1.968-3.144-2.954c-0.687-0.647-1.37-1.298-2.055-1.946c-0.381-0.36-0.765-0.716-1.147-1.074
					C55.385,37.526,55.315,37.46,55.234,37.384z"/>
				<path fill="#010101" d="M55.17,51.88c0.267-0.202,0.521-0.396,0.777-0.588c0.742-0.553,1.485-1.105,2.228-1.658
					c0.807-0.601,1.615-1.199,2.422-1.801c0.692-0.514,1.385-1.026,2.071-1.548c0.09-0.068,0.138-0.061,0.217,0.002
					c0.704,0.556,1.508,0.804,2.399,0.738c0.688-0.051,1.31-0.293,1.852-0.725c0.088-0.071,0.142-0.087,0.245-0.009
					c0.931,0.704,1.868,1.4,2.804,2.097c0.974,0.724,1.948,1.444,2.922,2.169c0.571,0.425,1.142,0.854,1.712,1.281
					c0.013,0.009,0.02,0.025,0.035,0.046c-0.188,0.095-0.383,0.119-0.583,0.119c-0.894,0-1.786,0-2.68,0
					c-5.256,0-10.511,0-15.767,0.001C55.606,52.005,55.392,51.988,55.17,51.88z"/>
			</g>
		</g>
	</g>
</g>
<g id="Layer_2_1_">
	<g>
		<g>
			<path d="M65.251,55.301c-0.237,0-0.473,0-0.709,0c-0.043-0.013-0.083-0.032-0.127-0.037c-0.248-0.021-0.497-0.032-0.745-0.057
				c-0.687-0.069-1.359-0.215-2.017-0.426c-2.286-0.735-4.139-2.073-5.539-4.022c-1.268-1.763-1.923-3.745-2.011-5.91
				c-0.021-0.501,0.018-1.006,0.048-1.508c0.044-0.717,0.188-1.419,0.401-2.104c0.922-2.95,2.754-5.144,5.504-6.556
				c1.352-0.694,2.796-1.069,4.318-1.133c0.045-0.002,0.093-0.023,0.14-0.036c0.254,0,0.508,0,0.763,0
				c0.05,0.013,0.102,0.035,0.154,0.037c0.646,0.019,1.281,0.112,1.908,0.263c2.606,0.63,4.716,2.019,6.298,4.185
				c1.298,1.778,1.965,3.785,2.054,5.98c0.034,0.839-0.026,1.674-0.185,2.503c-0.274,1.443-0.816,2.779-1.634,4
				c-0.99,1.479-2.269,2.647-3.835,3.495c-1.441,0.779-2.98,1.217-4.62,1.287C65.362,55.265,65.307,55.288,65.251,55.301z
				 M66.531,47.835c-0.03,0.089-0.052,0.145-0.065,0.204c-0.041,0.158-0.068,0.32-0.12,0.474c-0.055,0.158-0.198,0.226-0.352,0.157
				c-0.093-0.041-0.188-0.114-0.247-0.198c-0.208-0.296-0.408-0.599-0.599-0.907c-0.527-0.854-1.045-1.711-1.567-2.566
				c-0.469-0.771-0.946-1.537-1.407-2.312c-0.173-0.292-0.327-0.597-0.464-0.908c-0.089-0.203,0.115-0.414,0.332-0.363
				c0.142,0.033,0.28,0.077,0.421,0.112c0.066,0.017,0.135,0.023,0.242,0.042c-0.341-1.398-0.685-2.754-1.062-4.104
				c-0.048,0.012-0.067,0.014-0.083,0.022c-0.027,0.016-0.053,0.035-0.078,0.055c-0.503,0.395-0.979,0.816-1.415,1.289
				c-0.406,0.44-0.591,0.939-0.604,1.526c-0.013,0.586,0.025,1.168,0.116,1.747c0.192,1.213,0.561,2.372,1.115,3.468
				c0.221,0.436,0.498,0.842,0.735,1.271c0.585,1.051,1.371,1.938,2.258,2.737c0.604,0.547,1.305,0.963,1.99,1.401
				c0.379,0.242,0.787,0.415,1.227,0.496c0.166,0.031,0.351,0.044,0.512,0.004c0.4-0.098,0.797-0.216,1.185-0.352
				c0.312-0.109,0.614-0.243,0.912-0.388c0.179-0.085,0.178-0.142,0.026-0.275c-0.854-0.754-1.707-1.508-2.562-2.261
				C66.839,48.085,66.695,47.972,66.531,47.835z M61.921,37.305c0.016,0.091,0.023,0.153,0.039,0.213
				c0.13,0.509,0.26,1.018,0.393,1.526c0.201,0.771,0.402,1.542,0.605,2.313c0.052,0.196,0.092,0.217,0.242,0.107
				c0.217-0.157,0.425-0.326,0.64-0.485c0.073-0.054,0.069-0.117,0.05-0.192c-0.271-1.062-0.544-2.123-0.81-3.186
				c-0.029-0.117-0.091-0.165-0.202-0.179c-0.171-0.022-0.34-0.055-0.51-0.077C62.227,37.329,62.084,37.32,61.921,37.305z
				 M69.957,50.374c0.125-0.314,0.236-0.598,0.349-0.877c0.044-0.11,0.016-0.188-0.073-0.263c-0.311-0.266-0.616-0.535-0.924-0.803
				c-0.503-0.438-1.003-0.877-1.51-1.312c-0.051-0.043-0.153-0.081-0.203-0.059c-0.278,0.121-0.548,0.26-0.817,0.399
				c-0.092,0.047-0.089,0.116-0.01,0.183c0.027,0.023,0.055,0.049,0.081,0.072c0.831,0.717,1.663,1.434,2.494,2.149
				C69.536,50.029,69.731,50.188,69.957,50.374z"/>
			<path fill="#FFFFFF" d="M65.251,55.301c0.056-0.013,0.11-0.036,0.167-0.038c1.64-0.07,3.179-0.508,4.62-1.287
				c1.566-0.848,2.845-2.016,3.835-3.495c0.817-1.222,1.359-2.557,1.634-4c0.158-0.83,0.219-1.664,0.185-2.503
				c-0.089-2.196-0.756-4.202-2.054-5.98c-1.582-2.167-3.691-3.555-6.298-4.185c-0.627-0.151-1.263-0.245-1.908-0.263
				c-0.052-0.001-0.104-0.023-0.154-0.036c3.504,0,7.007,0,10.512,0c0,7.262,0,14.525,0,21.788
				C72.277,55.301,68.764,55.301,65.251,55.301z"/>
			<path fill="#FFFFFF" d="M64.516,33.513c-0.047,0.013-0.095,0.034-0.14,0.036c-1.522,0.064-2.967,0.439-4.318,1.133
				c-2.75,1.412-4.582,3.606-5.504,6.556c-0.213,0.685-0.357,1.386-0.401,2.104c-0.031,0.502-0.068,1.006-0.048,1.508
				c0.087,2.165,0.744,4.147,2.011,5.91c1.4,1.949,3.253,3.287,5.539,4.022c0.658,0.211,1.33,0.356,2.017,0.426
				c0.248,0.024,0.497,0.036,0.745,0.057c0.044,0.004,0.085,0.024,0.127,0.037c-3.512,0-7.024,0-10.538,0c0-7.264,0-14.526,0-21.789
				C57.509,33.513,61.012,33.513,64.516,33.513z"/>
			<path fill="#FFFFFF" d="M66.531,47.835c0.164,0.137,0.309,0.25,0.447,0.37c0.854,0.753,1.708,1.508,2.562,2.262
				c0.15,0.133,0.152,0.189-0.026,0.275c-0.298,0.144-0.601,0.278-0.912,0.387c-0.388,0.136-0.784,0.255-1.185,0.352
				c-0.161,0.04-0.346,0.027-0.512-0.004c-0.439-0.081-0.848-0.253-1.227-0.496c-0.685-0.438-1.386-0.854-1.99-1.399
				c-0.887-0.8-1.673-1.688-2.258-2.739c-0.237-0.428-0.515-0.835-0.735-1.271c-0.554-1.095-0.923-2.254-1.115-3.467
				c-0.091-0.579-0.129-1.161-0.117-1.747c0.013-0.586,0.198-1.085,0.604-1.526c0.436-0.473,0.912-0.895,1.415-1.289
				c0.025-0.02,0.051-0.039,0.078-0.055c0.015-0.008,0.034-0.01,0.083-0.022c0.376,1.351,0.72,2.707,1.062,4.105
				c-0.107-0.018-0.177-0.025-0.243-0.042c-0.141-0.035-0.279-0.08-0.42-0.112c-0.216-0.051-0.421,0.161-0.332,0.363
				c0.137,0.311,0.291,0.616,0.464,0.907c0.461,0.775,0.937,1.542,1.407,2.312c0.522,0.855,1.041,1.714,1.566,2.567
				c0.19,0.309,0.392,0.61,0.6,0.906c0.059,0.084,0.154,0.158,0.247,0.198c0.153,0.068,0.297,0.001,0.351-0.157
				c0.053-0.152,0.08-0.315,0.12-0.472C66.479,47.979,66.5,47.924,66.531,47.835z"/>
			<path fill="#FFFFFF" d="M61.921,37.305c0.163,0.015,0.306,0.023,0.447,0.041c0.17,0.022,0.339,0.054,0.51,0.077
				c0.111,0.014,0.173,0.062,0.202,0.179c0.267,1.063,0.539,2.124,0.81,3.185c0.02,0.075,0.023,0.139-0.05,0.193
				c-0.215,0.158-0.423,0.327-0.639,0.484c-0.151,0.109-0.191,0.088-0.243-0.107c-0.203-0.771-0.404-1.542-0.605-2.313
				c-0.132-0.508-0.263-1.017-0.393-1.526C61.944,37.458,61.937,37.396,61.921,37.305z"/>
			<path fill="#FFFFFF" d="M69.957,50.374c-0.226-0.187-0.421-0.345-0.613-0.51c-0.831-0.715-1.663-1.432-2.494-2.148
				c-0.026-0.023-0.054-0.049-0.081-0.072c-0.079-0.066-0.082-0.136,0.011-0.184c0.269-0.139,0.54-0.277,0.816-0.398
				c0.052-0.022,0.152,0.016,0.203,0.059c0.507,0.434,1.007,0.873,1.51,1.312c0.308,0.268,0.613,0.537,0.924,0.803
				c0.089,0.075,0.117,0.152,0.074,0.263C70.193,49.776,70.082,50.06,69.957,50.374z"/>
		</g>
	</g>
</g>
</svg>
